<svg xmlns="http://www.w3.org/2000/svg" width="2000" height="2000"><path d="m971.719-.259 2.055-.01c2.242-.01 4.484-.003 6.726.003l4.674-.005q4.897-.005 9.795.01c4.186.012 8.373.005 12.56-.007q4.824-.009 9.65 0 2.316.003 4.632-.005c2.157-.005 4.313.003 6.47.014l3.721.005C1035 0 1035 0 1038 2c2.69.276 5.304.464 8 .562 7.647.32 7.647.32 11 1.438 1.36.165 2.726.29 4.093.385l2.518.185 2.748.192q2.97.22 5.937.442l3.182.237C1172.989 12.799 1269.498 33.93 1428 99l3.404 1.598c14.58 6.862 28.87 14.08 42.94 21.931a652 652 0 0 0 8.031 4.362c28.542 15.306 56.134 32.478 82.625 51.109l4.082 2.848c20.258 14.17 39.97 29.003 59.098 44.664q2.39 1.952 4.789 3.894a714 714 0 0 1 29.812 25.59 398 398 0 0 0 6.094 5.379c18.179 15.866 36.878 32.328 52.488 50.77 1.956 2.217 4.033 4.279 6.137 6.355a170 170 0 0 1 9.629 10.348c2.202 2.533 4.473 4.995 6.746 7.464 4.147 4.543 8.057 9.23 11.918 14.016 2.123 2.57 4.325 5.031 6.582 7.484 3.98 4.373 7.638 8.93 11.26 13.598 3 3.866 6.055 7.68 9.159 11.462 6.995 8.525 13.676 17.243 20.206 26.128l1.53 2.067c9.61 13.011 18.578 26.424 27.47 39.933l1.98 2.993c12.6 19.052 24.363 38.514 35.564 58.42q1.392 2.475 2.795 4.944c17.838 31.48 33.706 64.268 47.661 97.643l.796 1.901c32.56 77.907 55.06 160.006 74.61 318.172l.2 3.064.16 2.647c.172 2.388.172 2.388 1.234 5.216.228 3.614.394 7.221.518 10.84.176 3.844.305 5.894 2.482 9.16.254 2.998.254 2.998.259 6.719l.01 2.055c.01 2.242.003 4.484-.003 6.726l.005 4.674q.005 4.898-.01 9.795c-.012 4.186-.005 8.373.007 12.56q.009 4.824 0 9.65-.003 2.316.005 4.632c.005 2.157-.003 4.313-.014 6.47l-.005 3.721C2000 1035 2000 1035 1998 1038a135 135 0 0 0-.562 8.5c-.32 8.146-.32 8.146-1.438 11.5a79 79 0 0 0-.385 4.017l-.185 2.467-.192 2.692q-.22 2.909-.443 5.817l-.236 3.117c-6.678 86.804-24.32 172.585-82.559 327.89l-1.382 3.114c-6.823 15.336-14.257 30.366-21.743 45.386l-1.404 2.825c-8.684 17.442-18.042 34.44-27.909 51.237l-1.106 1.886c-5.433 9.247-10.994 18.383-16.954 27.302-1.755 2.63-3.495 5.268-5.236 7.906-15.776 23.851-32.115 47.296-49.94 69.67a684 684 0 0 0-4.064 5.19 571 571 0 0 1-16.64 20.394c-2.445 2.866-4.819 5.784-7.185 8.715-3.873 4.76-7.945 9.303-12.097 13.82a343 343 0 0 0-5.902 6.617c-15.5 17.786-31.492 36.031-49.551 51.27-2.402 2.123-4.634 4.388-6.887 6.668-3.49 3.528-7.046 6.874-10.816 10.098-2.192 1.91-4.328 3.873-6.458 5.85a301 301 0 0 1-16.09 13.88c-2.56 2.11-5.007 4.3-7.448 6.547-4.375 3.982-8.933 7.642-13.605 11.264a491 491 0 0 0-11.303 9.053c-8.74 7.197-17.76 13.954-26.926 20.598a1230 1230 0 0 0-6.717 4.92c-11.34 8.32-22.987 16.149-34.734 23.88q-4.005 2.637-8 5.289a777 777 0 0 1-53.887 32.508 729 729 0 0 0-6.332 3.55c-51.622 28.931-105.857 52.131-161.684 71.563l-2.917 1.029c-79.206 27.864-164.026 43.511-247.682 49.071l-2.461.166q-2.274.152-4.548.29c-3.004.198-5.52.487-8.392 1.444-3.399.227-6.791.393-10.195.518-3.742.183-5.62.359-8.805 2.482-2.998.254-2.998.254-6.719.259l-2.055.01c-2.242.01-4.484.003-6.726-.003l-4.674.005q-4.897.005-9.795-.01a2250 2250 0 0 0-12.56.007q-4.824.009-9.65 0-2.316-.003-4.632.005c-2.157.005-4.313-.003-6.47-.014l-3.721-.005C965 2000 965 2000 962 1998c-2.69-.276-5.304-.464-8-.563-7.647-.32-7.647-.32-11-1.437a81 81 0 0 0-4.109-.385l-2.527-.185-2.759-.192-5.952-.442-3.188-.237c-69.034-5.2-136.88-17.694-203.465-36.559l-2.201-.621c-35.812-10.125-70.775-22.947-104.973-37.597q-2.617-1.12-5.238-2.233c-17.125-7.304-33.891-15.325-50.588-23.549l-2.037-1.002c-16.19-7.965-32.353-15.934-47.963-24.998l-3.284-1.895c-13.627-7.864-27.224-15.755-40.31-24.5q-3.556-2.369-7.12-4.721c-13.243-8.751-26.434-17.564-39.286-26.884l-2.326-1.686c-14.692-10.681-28.923-21.841-42.994-33.322a743 743 0 0 0-8.805-7.055c-9.45-7.544-18.523-15.54-27.434-23.71a336 336 0 0 0-6.378-5.665c-7.84-6.826-15.502-13.828-22.735-21.296-1.95-1.898-3.935-3.669-5.996-5.442-4.846-4.209-9.368-8.714-13.894-13.262l-2.46-2.447c-4.267-4.274-8.375-8.622-12.314-13.201-2.8-3.22-5.738-6.31-8.664-9.414-4.767-5.086-9.473-10.199-14-15.5q-1.382-1.602-2.766-3.203c-6.19-7.177-12.284-14.42-18.234-21.797l-1.342-1.658c-7.517-9.293-14.85-18.718-22.069-28.245-1.524-2.012-3.055-4.02-4.585-6.027C151.97 1532.513 111.255 1460.75 80 1386l-.796-1.901c-31.77-76.02-54.313-156.348-74.66-318.577l-.185-2.94-.141-2.493c-.162-2.281-.162-2.281-1.218-5.089a378 378 0 0 1-.518-10.84c-.176-3.844-.305-5.894-2.482-9.16-.254-2.998-.254-2.998-.259-6.719l-.01-2.055c-.01-2.242-.003-4.484.003-6.726l-.005-4.674q-.005-4.898.01-9.795c.012-4.186.005-8.373-.007-12.56q-.009-4.824 0-9.65.003-2.316-.005-4.632c-.005-2.157.003-4.313.014-6.47l.005-3.721C0 965 0 965 2 962c.277-2.856.465-5.639.563-8.5.32-8.146.32-8.146 1.437-11.5.165-1.335.29-2.675.385-4.017l.185-2.467.192-2.692q.22-2.909.443-5.817l.236-3.117c6.664-86.624 24.41-171.867 99.624-363.994q1.453-2.947 2.897-5.899C116.451 536.68 125.25 519.651 135 503l1.628-2.802C156.983 465.178 179.422 431.206 204 399l2.512-3.316c6.156-8.1 12.556-15.993 19-23.864q1.952-2.39 3.894-4.789A713 713 0 0 1 255 337.215c1.796-1.99 3.56-4 5.313-6.028 7.273-8.336 14.82-16.401 22.699-24.167 1.795-1.824 3.461-3.692 5.113-5.645 7.631-8.882 16.177-17.286 25.121-24.84 2.012-1.761 3.878-3.63 5.754-5.535 3.15-3.193 6.412-6.172 9.813-9.094 2.542-2.215 5.018-4.497 7.5-6.781 4.44-4.05 9.006-7.88 13.683-11.652 3.5-2.882 6.907-5.86 10.317-8.848 6.428-5.61 13.026-10.94 19.781-16.149a947 947 0 0 0 6.152-4.816 762 762 0 0 1 29.259-21.88q2.825-2.017 5.64-4.048c8.399-6.048 16.92-11.884 25.543-17.607l1.975-1.314C490.531 140.985 534.372 116.14 580 95l3.262-1.514c80.27-37.076 165.575-63.15 351.049-88.84l3.326-.216 2.928-.18c2.572-.175 2.572-.175 5.435-1.25 3.399-.227 6.791-.393 10.195-.518 5.793-.283 9.623-2.733 15.524-2.74" fill="#cbfe00"/><path d="M1326.313 199.188c5.474 3.692 8.016 8.515 9.687 14.812.45 3.841.476 7.635.438 11.5l-.026 3.323c-.38 18.91-4.925 36.914-9.63 55.138-1.702 6.629-3.208 13.288-4.657 19.976-2.37 10.9-4.964 21.733-7.625 32.563-2.913 11.861-5.719 23.734-8.332 35.665a1715 1715 0 0 1-12.969 54.93c-2.159 8.575-4.062 17.2-5.95 25.84-1.842 8.378-3.88 16.694-5.999 25.006-1.895 7.49-3.601 15.012-5.25 22.559-1.865 8.538-3.84 17.032-6 25.5-2.138 8.385-4.094 16.795-5.937 25.25A835 835 0 0 1 1257.5 579a818 818 0 0 0-6.5 27.5c-2.263 10.395-4.774 20.709-7.395 31.02-2.01 7.965-3.858 15.953-5.605 23.98a811 811 0 0 1-6.437 27.25 1028 1028 0 0 0-7.126 30c-2.028 9.116-4.13 18.2-6.437 27.25-10.21 40.17-19.737 79.464-12 121l.39 2.14c5.238 27.369 19.747 53.346 38.567 73.606a93 93 0 0 1 4.082 4.836c2.934 3.618 6.403 6.43 9.961 9.418l2.473 2.133c13.224 11.179 28.369 19.337 43.344 27.9 6.071 3.472 12.127 6.97 18.183 10.467q9.694 5.597 19.395 11.18 8.084 4.654 16.156 9.328 4.56 2.632 9.13 5.248a2357 2357 0 0 1 7.75 4.47q1.839 1.062 3.683 2.113c24.029 13.701 44.802 32.145 52.847 59.419 5.496 22.137.626 43.398-10.961 62.742-6.889 11.248-15.817 20.606-25 30-.81.84-1.622 1.678-2.457 2.543a138 138 0 0 1-9.105 8.52c-4.198 3.598-8.05 7.512-11.938 11.437-4.409 4.452-8.822 8.789-13.613 12.832-3.308 2.924-6.348 6.122-9.45 9.262-2.69 2.656-5.503 5.107-8.374 7.562-2.452 2.192-4.752 4.505-7.063 6.844a176 176 0 0 1-10.937 10.156c-3.353 2.998-6.462 6.236-9.622 9.434-2.713 2.679-5.549 5.156-8.445 7.633-3.063 2.727-5.898 5.671-8.777 8.59-2.627 2.589-5.389 4.975-8.188 7.374-3.07 2.74-5.919 5.692-8.808 8.622-2.65 2.612-5.435 5.024-8.258 7.445-2.78 2.47-5.356 5.128-7.965 7.777-2.563 2.523-5.273 4.845-8 7.188-2.083 1.855-4.043 3.793-6 5.781-2.52 2.559-5.081 4.982-7.812 7.313-3.39 2.91-6.553 6.009-9.688 9.187-3.053 3.095-6.123 6.12-9.437 8.938-3.54 3.016-6.798 6.256-10.063 9.562-3.83 3.877-7.72 7.562-11.875 11.094-3.374 3.026-6.517 6.278-9.7 9.501a166 166 0 0 1-10.366 9.565c-3.13 2.798-6.046 5.806-8.993 8.793-3.2 3.227-6.517 6.226-9.972 9.172-3.554 3.183-6.856 6.62-10.188 10.031-2.165 2.171-4.427 4.187-6.75 6.188-4.26 3.689-8.211 7.634-12.156 11.656-4.55 4.639-9.17 9.076-14.094 13.316-2.938 2.596-5.667 5.381-8.406 8.184-4.028 4.079-8.103 7.986-12.477 11.695-3.12 2.784-6.022 5.783-8.957 8.759-3.2 3.226-6.517 6.225-9.972 9.171-3.14 2.811-6.068 5.828-9.025 8.826-3.223 3.249-6.562 6.273-10.042 9.24-2.441 2.179-4.727 4.481-7.027 6.809-2.896 2.931-5.802 5.764-8.937 8.438-3.352 2.864-6.469 5.925-9.563 9.062a181 181 0 0 1-11.473 10.691c-2.441 2.179-4.727 4.481-7.027 6.809-2.896 2.931-5.802 5.764-8.937 8.438-3.352 2.864-6.469 5.925-9.563 9.062a180 180 0 0 1-11.406 10.625c-3.14 2.811-6.068 5.828-9.025 8.826-3.223 3.249-6.562 6.273-10.042 9.24-3.343 2.983-6.438 6.213-9.586 9.399-2.713 2.679-5.549 5.156-8.445 7.633-2.257 2.01-4.373 4.125-6.496 6.277-2.728 2.766-5.485 5.413-8.437 7.938-3.173 2.718-6.126 5.59-9.063 8.562-2.876 2.91-5.759 5.724-8.875 8.375-4.077 3.483-7.822 7.262-11.562 11.1a128 128 0 0 1-8.22 7.681c-5.568 4.818-10.675 10.106-15.843 15.344-5.764 5.842-11.503 11.635-17.748 16.97-2.722 2.377-5.232 4.944-7.752 7.53-3.891 3.945-7.852 7.7-12.074 11.293-3.045 2.7-5.854 5.628-8.711 8.523a117 117 0 0 1-6.153 5.621c-3.172 2.72-6.125 5.59-9.062 8.563-2.896 2.931-5.802 5.764-8.937 8.438-3.868 3.304-7.42 6.89-10.99 10.508-3.266 3.294-6.652 6.369-10.178 9.378-2.68 2.37-5.161 4.916-7.645 7.488-1.944 1.89-3.93 3.67-5.977 5.446-4.327 3.758-8.492 7.671-12.648 11.617q-2.257 2.129-4.516 4.254-3.458 3.255-6.906 6.523c-13.568 12.59-30.811 26.852-50.031 26.618-4.203-.358-6.22-1.242-9.172-4.27-13.204-21.306-3.216-55.674 2.125-78.5q1.501-6.349 3.025-12.693c2.061-8.628 3.987-17.284 5.908-25.944 2.957-13.309 6.05-26.562 9.421-39.773 2.137-8.415 4.076-16.865 5.958-25.34a1172 1172 0 0 1 7.688-32.375l.52-2.061 2.481-9.832c3.48-13.862 6.636-27.798 9.812-41.732 4.375-19.2 8.873-38.352 13.887-57.396 3.238-12.337 6.138-24.746 8.948-37.186l1.977-8.73.508-2.24c2.987-13.157 6.19-26.253 9.509-39.33 2.626-10.358 5.13-20.743 7.588-31.143a14265 14265 0 0 1 5.895-24.787l.714-2.997a3099 3099 0 0 1 9.786-39.879c3.704-14.675 7.139-29.394 10.394-44.176q.88-4 1.77-7.998c2.95-13.248 5.897-26.497 8.461-39.825l.471-2.435c7.687-41.057-3.976-82.882-27.284-117.003-5.081-7.252-10.603-14.079-16.562-20.625l-2.574-2.828c-13.127-13.735-28.892-23.084-45.306-32.394-5.023-2.862-10.007-5.793-14.995-8.716-13.81-8.063-27.67-16.042-41.529-24.022a11504 11504 0 0 1-19.715-11.38q-3.91-2.25-7.834-4.472c-24.567-14.018-43.431-31.898-52.078-59.477-5.791-22.896-.671-43.543 11.068-63.47 8.713-14.221 21.636-25.842 34.168-36.657 2.554-2.254 4.915-4.647 7.295-7.084 3.051-3.097 6.123-6.12 9.438-8.937 3.539-3.017 6.797-6.257 10.062-9.563 3.851-3.899 7.764-7.608 11.941-11.16 3.13-2.798 6.046-5.806 8.993-8.793 3.2-3.227 6.517-6.226 9.972-9.172 2.634-2.358 5.112-4.86 7.594-7.375a180 180 0 0 1 11.406-10.625c3.14-2.811 6.068-5.828 9.025-8.826 3.223-3.249 6.562-6.273 10.042-9.24 2.441-2.179 4.727-4.481 7.027-6.809 2.896-2.931 5.802-5.764 8.938-8.437 3.351-2.865 6.468-5.926 9.562-9.063a180 180 0 0 1 11.406-10.625c2.634-2.358 5.112-4.86 7.594-7.375 3.053-3.095 6.123-6.12 9.438-8.937 3.539-3.017 6.797-6.257 10.062-9.563 3.203-3.243 6.391-6.43 9.875-9.375 4.546-3.861 8.682-8.13 12.851-12.388 2.965-3.009 5.978-5.888 9.18-8.643 4.422-3.817 8.503-7.929 12.594-12.094 4.754-4.84 9.561-9.502 14.705-13.928 2.379-2.083 4.59-4.307 6.795-6.572a176 176 0 0 1 10.938-10.156c3.351-2.996 6.458-6.233 9.617-9.43 2.736-2.702 5.595-5.205 8.515-7.703 2.772-2.458 5.336-5.107 7.934-7.746 1.917-1.887 3.892-3.652 5.933-5.403 2.991-2.569 5.794-5.255 8.563-8.062 3.382-3.429 6.88-6.62 10.535-9.754 2.073-1.842 4.02-3.77 5.965-5.746 2.56-2.6 5.168-5.063 7.938-7.437 2.99-2.57 5.793-5.256 8.562-8.063 3.361-3.407 6.837-6.575 10.469-9.687 2.267-2.024 4.397-4.15 6.531-6.313 2.728-2.766 5.485-5.413 8.438-7.937 3.172-2.72 6.125-5.59 9.062-8.563a178 178 0 0 1 11.004-10.223c2.257-2.01 4.373-4.125 6.496-6.277 2.708-2.745 5.442-5.373 8.375-7.875 3.37-2.887 6.51-5.967 9.625-9.125a180 180 0 0 1 11.406-10.625c2.634-2.358 5.112-4.86 7.594-7.375 3.053-3.095 6.123-6.12 9.438-8.937 3.539-3.017 6.797-6.257 10.062-9.563 3.83-3.877 7.72-7.562 11.875-11.094 2.819-2.529 5.464-5.212 8.125-7.906 3.224-3.264 6.435-6.468 9.938-9.437 4.293-3.649 8.21-7.655 12.144-11.682 2.845-2.89 5.75-5.64 8.824-8.287 4.242-3.666 8.17-7.593 12.094-11.594 4.53-4.618 9.13-9.032 14.031-13.254 3.307-2.932 6.376-6.092 9.469-9.246 4.32-4.367 8.647-8.606 13.348-12.566 3.829-3.44 7.391-7.155 11.01-10.812 3.617-3.64 7.302-7.104 11.22-10.419 3.316-2.938 6.368-6.143 9.48-9.293 2.714-2.679 5.55-5.156 8.446-7.633 3.063-2.727 5.898-5.671 8.777-8.59 2.627-2.589 5.389-4.975 8.188-7.375 3.07-2.74 5.919-5.691 8.808-8.62 2.65-2.613 5.435-5.025 8.258-7.446 2.699-2.398 5.208-4.962 7.715-7.558 1.957-1.903 3.956-3.696 6.016-5.485 4.09-3.553 8.047-7.231 11.984-10.953l4.23-3.973q2.843-2.668 5.679-5.343c43.58-41.084 43.58-41.084 62.653-34.246"/></svg>